<svg width="100" height="99" viewBox="0 0 100 99" fill="none" xmlns="http://www.w3.org/2000/svg">
<g id="Dados">
<path id="Vector" opacity="0.99" d="M66.4599 67.32L35.6599 75.48L58.4999 98.36L89.3099 90.18L66.4599 67.32ZM51.4599 81.11C50.5782 81.2904 49.6665 81.2614 48.798 81.0252C47.9296 80.7889 47.1288 80.3522 46.4599 79.75C45.6399 78.92 45.5299 78.03 46.0899 77.43C46.0899 77.43 46.0899 77.43 46.1499 77.43C46.4529 77.1627 46.8169 76.9739 47.2099 76.88C47.5695 76.7895 47.9392 76.7458 48.3099 76.75C49.7534 76.7321 51.154 77.2404 52.2499 78.18C53.4399 79.39 53.0999 80.69 51.4999 81.11H51.4599ZM63.1099 92.73C62.2273 92.902 61.3168 92.8679 60.4496 92.6302C59.5823 92.3926 58.7816 91.9579 58.1099 91.36C57.2899 90.54 57.2099 89.64 57.7699 89.04L57.8399 88.97C58.1191 88.7019 58.464 88.5122 58.8399 88.42C59.211 88.3399 59.5906 88.3063 59.9699 88.32C61.4066 88.3262 62.791 88.8601 63.8599 89.82C64.9999 91.01 64.7099 92.3 63.1099 92.73ZM66.1099 77.22C65.2274 77.3991 64.3152 77.3684 63.4468 77.1305C62.5783 76.8925 61.7778 76.4539 61.1099 75.85C60.2899 75.03 60.1799 74.13 60.7399 73.53C60.7399 73.53 60.7899 73.53 60.8099 73.53C61.0891 73.2619 61.434 73.0722 61.8099 72.98C62.1973 72.8708 62.5975 72.8137 62.9999 72.81C64.4503 72.8166 65.8482 73.3537 66.9299 74.32C68.0899 75.5 67.7499 76.8 66.1499 77.18L66.1099 77.22ZM77.7699 88.83C76.8789 89.0155 75.9568 88.989 75.0779 88.7528C74.199 88.5166 73.3879 88.0772 72.7099 87.47C71.8899 86.64 71.8099 85.75 72.3699 85.14C72.3699 85.14 72.3699 85.14 72.4399 85.14C72.7191 84.8719 73.064 84.6822 73.4399 84.59C73.8089 84.4953 74.1891 84.4515 74.5699 84.46C76.0088 84.4548 77.3971 84.9901 78.4599 85.96C79.6699 87.11 79.3599 88.41 77.7699 88.83Z" fill="#4B69FD"/>
<path id="Vector_2" d="M41.1901 0L10.0701 8.64L32.7201 31.64L63.8601 23L41.1901 0ZM25.7801 14.72C24.8979 14.9107 23.9828 14.8857 23.1123 14.6472C22.2419 14.4087 21.4418 13.9637 20.7801 13.35C19.6101 12.16 19.9601 10.83 21.5701 10.35C21.9944 10.241 22.4323 10.1938 22.8701 10.21C23.3296 10.231 23.7856 10.3014 24.2301 10.42C25.1176 10.6376 25.9318 11.0861 26.5901 11.72C27.7401 12.94 27.4001 14.27 25.7801 14.72ZM39.0701 18C38.191 18.1934 37.2784 18.1735 36.4086 17.9422C35.5387 17.7108 34.7369 17.2746 34.0701 16.67C32.9001 15.47 33.2401 14.14 34.8501 13.67C35.2732 13.5521 35.7109 13.4949 36.1501 13.5C36.6229 13.5201 37.0922 13.5905 37.5501 13.71C38.4376 13.9276 39.2518 14.3761 39.9101 15.01C41.0601 16.18 40.6801 17.55 39.0701 18ZM52.3901 21.31C51.5085 21.4953 50.5955 21.4686 49.7263 21.2322C48.857 20.9958 48.0563 20.5563 47.3901 19.95C46.2101 18.75 46.5601 17.42 48.1701 16.95C48.5941 16.8396 49.0326 16.7957 49.4701 16.82C49.9429 16.8325 50.4127 16.8996 50.8701 17.02C51.7551 17.2441 52.5677 17.6917 53.2301 18.32C54.3501 19.53 54.0001 20.86 52.3901 21.31Z" fill="#FE652B" fill-opacity="0.99"/>
<path id="Vector_3" d="M9.15007 9.90002L0.820068 41.02L23.3601 63.39L31.6901 32.27L9.15007 9.90002ZM10.8901 41.32C10.4601 42.94 9.16007 43.32 7.99007 42.14C7.3904 41.4702 6.95738 40.6682 6.72626 39.7993C6.49515 38.9305 6.47247 38.0193 6.66007 37.14C6.93007 36.14 7.56007 35.6 8.26007 35.64C8.36553 35.6527 8.46941 35.6761 8.57007 35.71C8.94991 35.8249 9.29412 36.0349 9.57007 36.32C10.1673 36.9912 10.598 37.7937 10.8274 38.6623C11.0567 39.531 11.0782 40.4415 10.8901 41.32ZM12.2301 26.32C11.63 25.6502 11.1961 24.8486 10.9633 23.98C10.7305 23.1113 10.7054 22.2001 10.8901 21.32C11.1701 20.32 11.7901 19.78 12.5001 19.82C12.606 19.8301 12.7101 19.8536 12.8101 19.89C13.1888 20.0073 13.5325 20.2169 13.8101 20.5C14.407 21.1716 14.8382 21.9737 15.0692 22.842C15.3002 23.7103 15.3244 24.6206 15.1401 25.5C14.7001 27.12 13.3901 27.49 12.2301 26.33V26.32ZM15.4701 39.54C14.8711 38.8697 14.4385 38.0677 14.2074 37.199C13.9764 36.3303 13.9533 35.4193 14.1401 34.54C14.1888 34.1946 14.3381 33.871 14.5692 33.6097C14.8003 33.3483 15.1032 33.1607 15.4401 33.07C15.641 33.0255 15.8492 33.0255 16.0501 33.07C16.4323 33.1848 16.7773 33.3987 17.0501 33.69C17.649 34.3603 18.0816 35.1623 18.3127 36.0311C18.5438 36.8998 18.5669 37.8107 18.3801 38.69C17.9401 40.34 16.6401 40.71 15.4701 39.55V39.54ZM21.6201 51.94C21.1901 53.55 19.8801 53.94 18.7101 52.76C18.1131 52.0885 17.6819 51.2864 17.4509 50.4181C17.22 49.5498 17.1957 48.6394 17.3801 47.76C17.4313 47.4155 17.5814 47.0932 17.8121 46.8323C18.0429 46.5714 18.3444 46.383 18.6801 46.29C18.8838 46.2408 19.0963 46.2408 19.3001 46.29C19.6811 46.4073 20.0255 46.6209 20.3001 46.91C20.9027 47.586 21.3366 48.3952 21.566 49.2713C21.7955 50.1474 21.814 51.0654 21.6201 51.95V51.94ZM22.9501 36.94C22.3511 36.2697 21.9185 35.4677 21.6874 34.599C21.4564 33.7303 21.4333 32.8193 21.6201 31.94C21.8901 30.94 22.4801 30.39 23.1901 30.43C23.3052 30.4437 23.4189 30.4671 23.5301 30.5C23.9123 30.6148 24.2573 30.8287 24.5301 31.12C25.1311 31.789 25.565 32.591 25.7962 33.4601C26.0274 34.3292 26.0493 35.2408 25.8601 36.12C25.4201 37.78 24.1201 38.18 23.0001 36.99L22.9501 36.94Z" fill="#FE652B" fill-opacity="0.99"/>
<path id="Vector_4" d="M33.88 32.82L25.51 64.07L56.25 55.74L64.62 24.49L33.88 32.82ZM38.53 53.42C38.257 54.2895 37.7835 55.0828 37.1478 55.7359C36.5121 56.3889 35.7319 56.8836 34.87 57.18C33.28 57.61 32.32 56.64 32.75 55.03C33.0264 54.1656 33.5014 53.378 34.137 52.7303C34.7726 52.0825 35.551 51.5927 36.41 51.3C36.6225 51.2438 36.8404 51.2103 37.06 51.2C37.2425 51.1967 37.4244 51.2203 37.6 51.27C38.44 51.44 38.84 52.25 38.53 53.42ZM40.64 45.49C40.3666 46.3482 39.8945 47.1297 39.262 47.7709C38.6294 48.4122 37.8544 48.8949 37 49.18C35.41 49.61 34.45 48.68 34.88 47.06C35.1614 46.1946 35.6419 45.4073 36.2827 44.7612C36.9235 44.1152 37.7069 43.6284 38.57 43.34C38.7681 43.2799 38.9732 43.2463 39.18 43.24C39.3625 43.2147 39.5476 43.2147 39.73 43.24C40.56 43.48 41 44.33 40.64 45.49ZM42.76 37.57C42.4857 38.4293 42.012 39.2115 41.3776 39.8528C40.7433 40.4941 39.9663 40.9763 39.11 41.26C37.51 41.69 36.55 40.72 36.99 39.1C37.2725 38.2397 37.7539 37.4582 38.395 36.8188C39.0362 36.1794 39.819 35.7002 40.68 35.42C40.8789 35.3618 41.0834 35.3249 41.29 35.31C41.4727 35.289 41.6573 35.289 41.84 35.31C42.68 35.56 43.07 36.41 42.76 37.57ZM53.14 49.45C52.8668 50.3144 52.394 51.1024 51.7599 51.7504C51.1259 52.3983 50.3483 52.8881 49.49 53.18C47.89 53.61 46.94 52.64 47.37 51.02C47.6528 50.1554 48.1338 49.3688 48.7744 48.7229C49.415 48.0771 50.1977 47.5898 51.06 47.3C51.2592 47.2448 51.4637 47.2113 51.67 47.2C51.8558 47.196 52.0411 47.2196 52.22 47.27C53.06 47.48 53.45 48.29 53.14 49.45ZM55.26 41.53C54.9866 42.3948 54.5124 43.1826 53.8763 43.8291C53.2402 44.4756 52.4602 44.9625 51.6 45.25C50.01 45.68 49.09 44.72 49.52 43.1C49.7932 42.2367 50.266 41.4499 50.9002 40.8036C51.5344 40.1572 52.312 39.6695 53.17 39.38C53.3715 39.3199 53.5799 39.2863 53.79 39.28C53.9725 39.2547 54.1576 39.2547 54.34 39.28C55.18 39.52 55.57 40.37 55.26 41.53ZM53.72 37.29C52.13 37.73 51.21 36.76 51.64 35.14C51.9157 34.2825 52.39 33.5023 53.0243 32.8628C53.6585 32.2234 54.4348 31.7427 55.29 31.46C55.5015 31.3975 55.7197 31.3606 55.94 31.35C56.112 31.3191 56.2881 31.3191 56.46 31.35C57.3 31.56 57.69 32.35 57.38 33.57C57.1073 34.4351 56.6334 35.2234 55.9972 35.87C55.361 36.5166 54.5806 37.0032 53.72 37.29Z" fill="#FE652B" fill-opacity="0.99"/>
<path id="Vector_5" d="M76.4001 35.08L68.0701 65.71L90.8501 88.53L99.1801 57.86L76.4001 35.08ZM85.7601 63.93C85.3301 65.52 84.0401 65.83 82.8601 64.65C82.2506 63.9856 81.8084 63.1853 81.5702 62.3158C81.3319 61.4462 81.3044 60.5323 81.4901 59.65C81.571 59.2664 81.7463 58.9089 82.0001 58.61C82.1262 58.4708 82.2808 58.3604 82.4533 58.2862C82.6258 58.212 82.8123 58.1758 83.0001 58.18C83.2692 58.1978 83.532 58.2699 83.7726 58.3919C84.0132 58.5139 84.2267 58.6834 84.4001 58.89C85.0083 59.5632 85.4486 60.3708 85.685 61.2468C85.9214 62.1227 85.9471 63.0422 85.7601 63.93Z" fill="#4B69FD" fill-opacity="0.99"/>
<path id="Vector_6" d="M63.29 37.26L57.82 57.55L38.42 62.55L35.28 74.18L66.63 65.92L75.14 34.12L63.29 37.26ZM48.53 63.42C48.2517 64.2964 47.7694 65.0942 47.1227 65.7479C46.476 66.4015 45.6834 66.8923 44.81 67.18C43.19 67.61 42.22 66.6 42.66 64.96C42.9486 64.082 43.4377 63.2832 44.0886 62.6271C44.7395 61.971 45.5343 61.4755 46.41 61.18C46.6344 61.1152 46.8665 61.0816 47.1 61.08C48.28 61.1 48.9 62.03 48.53 63.42ZM63.46 59.49C63.1735 60.3684 62.6836 61.1668 62.0302 61.8202C61.3768 62.4735 60.5785 62.9634 59.7 63.25C58.08 63.68 57.14 62.68 57.58 61.03C57.8586 60.1521 58.3422 59.3532 58.9908 58.6994C59.6394 58.0455 60.4344 57.5556 61.31 57.27C61.5359 57.2143 61.7674 57.1841 62 57.18C63.2 57.18 63.83 58.11 63.46 59.49ZM64 47.1C62.37 47.53 61.4 46.56 61.85 44.91C62.1175 44.0171 62.6099 43.2079 63.28 42.56C63.9322 41.9012 64.746 41.4253 65.64 41.18C65.864 41.1123 66.0961 41.0753 66.33 41.07C67.51 41.07 68.14 41.97 67.77 43.36C67.4841 44.2382 66.993 45.0355 66.3373 45.6859C65.6817 46.3363 64.8804 46.8211 64 47.1Z" fill="#4B69FD" fill-opacity="0.99"/>
</g>
</svg>
